# xmcd
#
# Track frame offsets:
#	150
#	13127
#	26692
#	39770
#	58969
#	72139
#	87750
#	104716
#	121789
#	134747
#	148259
#	161358
#	180532
#	193672
#	209305
#	226248
#
# Disc length: 3243 seconds
#
# Revision: 1
# Processed by: cddbd v1.5.2PL0 Copyright (c) Steve Scherf et al.
# Submitted via: audiograbber 1.83.01
#
DISCID=e20ca910
DTITLE=Singing Machine - Billboard 1995 Vol 2
DYEAR=1900
DGENRE=Karaoke CDG
TTITLE0=XXX's and OOO's - Trisha Yearwood
TTITLE1=Mi Vida Loca - Pam Tillis
TTITLE2=Tender When I Want To Be - Mary Chapin Carpenter
TTITLE3=Wherever You Go - The Calling
TTITLE4=As Any Fool Can See - Tracy Lawrence
TTITLE5=So help Me Girl - Joe Diffie
TTITLE6=I Can Love You Like That - John Michael Montgomery
TTITLE7=The Heart Is A Lonely Hunter - Reba McEntire
TTITLE8=XXX's and OOO's (vocal)/ Trisha Yearwood
TTITLE9=Mi Vida Loca (vocal)/ Pam Tillis
TTITLE10=Tender When I Want To Be (vocal) - Mary Chapin Carpenter
TTITLE11=Wherever You Go (vocal) - The Calling
TTITLE12=As Any Fool Can See (vocal) - Tracy Lawrence
TTITLE13=So help Me Girl (vocal) - Joe Diffie
TTITLE14=I Can Love You Like That (vocal) - John Michael Montgomery
TTITLE15=The Heart Is A Lonely Hunter (vocal) - Reba McEntire
EXTD=
EXTT0=
EXTT1=
EXTT2=
EXTT3=
EXTT4=
EXTT5=
EXTT6=
EXTT7=
EXTT8=
EXTT9=
EXTT10=
EXTT11=
EXTT12=
EXTT13=
EXTT14=
EXTT15=
PLAYORDER=
